<svg enable-background="new 0 0 487.343 487.343" viewBox="0 0 487.343 487.343" xmlns="http://www.w3.org/2000/svg"><path d="m51.725 354.622c-3.7 3.7-8.1 6.7-12.8 8.7v25.5 42.2c0 10.1 8.2 18.2 18.2 18.2h41c10.1 0 18.2-8.2 18.2-18.2v-42.2-53.8-42.2c0-.9-.1-1.8-.2-2.6z"/><path d="m476.325 90.722c-.4 0-.8 0-1.3 0-27.6 1.3-55.3 2.6-82.9 3.9-4.3.2-8.5.4-10.9 5.6-2.4 5.1.3 8 3.3 11 8.5 8.5 16.9 17.1 25.5 25.4l-9.4 9.4-76.5 76.5-6.8 6.8-16.7 16.7-65.8 65.8-3.8-3.8-78.7-78.7-16.7-16.7-4.5-4.5c-3.6-3.6-8.2-5.3-12.9-5.3s-9.3 1.8-12.9 5.3l-4.5 4.5-95.5 95.5c-7.1 7.1-7.1 18.7 0 25.8l4.5 4.5c3.6 3.6 8.2 5.3 12.9 5.3s9.3-1.8 12.9-5.3l82.6-82.6 3.8 3.8 78.7 78.7 16.7 16.7 4.5 4.5c3.6 3.6 8.2 5.3 12.9 5.3s9.3-1.8 12.9-5.3l4.5-4.5 78.7-78.7 16.7-16.7 6.8-6.8 76.5-76.5 9.3-9.3 25 24.8c2.3 2.3 4.6 4.8 7.9 4.8 1.2 0 2.6-.4 4.1-1.2 5-2.7 6.1-7.1 6.3-12 1.2-27 2.5-53.9 3.8-80.9.3-8.1-3.1-11.8-11-11.8z"/><path d="m190.025 207.222c7.9 3.8 16.3 5.8 24.8 7.1 6.7 1.1 6.9 1.4 7 8.3 0 3.2.1 6.3.1 9.5 0 4 2 6.3 6 6.4 4.7.1 9.3.1 14 0 3.8-.1 5.8-2.2 5.8-6 0-4.3.2-8.6 0-13s1.7-6.6 5.9-7.8c9.7-2.7 18-7.9 24.4-15.6 17.7-21.5 10.9-53-14.2-66.9-7.9-4.4-16.2-7.7-24.5-11.1-4.8-2-9.4-4.3-13.4-7.6-8-6.4-6.5-16.7 2.9-20.8 2.6-1.1 5.4-1.5 8.3-1.7 10.8-.6 21.1 1.4 31 6.1 4.9 2.4 6.5 1.6 8.2-3.5 1.7-5.4 3.2-10.8 4.8-16.3 1.1-3.6-.2-6.1-3.7-7.6-6.3-2.8-12.8-4.8-19.5-5.8-8.9-1.4-8.9-1.4-8.9-10.3-.1-12.6-.1-12.6-12.6-12.6-1.8 0-3.7 0-5.5 0-5.9.2-6.9 1.2-7 7.1-.1 2.7 0 5.3 0 8 0 7.9-.1 7.8-7.6 10.5-18.2 6.6-29.5 19-30.7 38.9-1.1 17.6 8.1 29.5 22.5 38.1 8.9 5.3 18.8 8.5 28.2 12.6 3.7 1.6 7.2 3.5 10.3 6 9.1 7.5 7.4 20-3.4 24.7-5.8 2.5-11.8 3.1-18.1 2.4-9.6-1.2-18.9-3.7-27.6-8.3-5.1-2.7-6.6-2-8.3 3.6-1.5 4.8-2.8 9.6-4.1 14.4-1.9 6.6-1.3 8.2 4.9 11.2z"/><path d="m201.025 371.422-16.7-16.7-36-36c-1.6 2.7-2.5 5.9-2.5 9.2v7.2 88.8 7.2c0 10.1 8.2 18.2 18.2 18.2h41c10.1 0 18.2-8.2 18.2-18.2v-7.2-37.5c-6.6-1.9-12.7-5.5-17.7-10.5z"/><path d="m268.525 371.422-4.5 4.5c-3.3 3.3-7.1 6-11.3 8v40 7.2c0 10.1 8.2 18.2 18.2 18.2h41c10.1 0 18.2-8.2 18.2-18.2v-7.2-88.8-7.2c0-5-2-9.5-5.3-12.8z"/><path d="m370.725 269.122-6.8 6.8-4.4 4.4v12.5 8.6 33.6 8.6 45.1 42.2c0 10.1 8.2 18.2 18.2 18.2h41c10.1 0 18.2-8.2 18.2-18.2v-42.2-45-8.6-33.6-8.6-45.2-42.2c0-.8-.1-1.6-.2-2.4z"/></svg>