<svg enable-background="new 0 0 487.901 487.901" viewBox="0 0 487.901 487.901" xmlns="http://www.w3.org/2000/svg"><path d="m391.2 185.9c0-32.1-26-58.1-58.1-58.1s-58.1 26-58.1 58.1 26 58.1 58.1 58.1 58.1-26 58.1-58.1zm-61.3 39.7c-1.6 0-2.4-.9-2.4-2.5 0-1.3 0-2.5 0-3.8 0-2.8-.1-2.9-2.8-3.3-3.4-.5-6.7-1.3-9.9-2.8-2.4-1.2-2.7-1.8-2-4.4.5-1.9 1-3.8 1.6-5.7.7-2.2 1.3-2.5 3.3-1.4 3.4 1.8 7.1 2.8 10.9 3.3 2.5.3 4.9.1 7.2-.9 4.3-1.9 4.9-6.8 1.3-9.8-1.2-1-2.6-1.8-4.1-2.4-3.7-1.6-7.7-2.9-11.2-5-5.7-3.4-9.4-8.2-9-15.1.5-7.9 4.9-12.8 12.2-15.5 3-1.1 3-1 3-4.2 0-1.1 0-2.1 0-3.2.1-2.4.5-2.8 2.8-2.8h2.2c5 0 5 0 5 5 0 3.5 0 3.5 3.5 4.1 2.7.4 5.3 1.2 7.8 2.3 1.4.6 1.9 1.6 1.5 3-.6 2.2-1.2 4.3-1.9 6.5-.7 2-1.3 2.3-3.2 1.4-3.9-1.9-8-2.7-12.3-2.4-1.1.1-2.2.2-3.3.7-3.7 1.6-4.3 5.7-1.2 8.3 1.6 1.3 3.4 2.2 5.3 3 3.3 1.4 6.6 2.7 9.7 4.4 10 5.5 12.7 18 5.6 26.6-2.5 3.1-5.8 5.2-9.7 6.2-1.7.5-2.4 1.3-2.4 3.1.1 1.7 0 3.4 0 5.1 0 1.5-.8 2.4-2.3 2.4-1.5-.1-3.4-.1-5.2-.2z"/><circle cx="248.6" cy="188.8" r="16.1"/><circle cx="417.7" cy="188.8" r="16.1"/><path d="m461.5 91.1h-253.1c-14.6 0-26.5 11.9-26.5 26.5v88.4c3.9-.2 7.8-.3 11.8-.3 3.7 0 7.3.1 10.9.3v-59.7c2.1.5 4.3.8 6.6.8 14.8 0 26.9-12 26.9-26.9 0-2.3-.3-4.5-.8-6.6h197.1c-.3 1.6-.5 3.3-.5 4.9 0 14.8 12 26.9 26.9 26.9 1.6 0 3.2-.2 4.7-.4v81.5c-1.5-.3-3.1-.4-4.7-.4-14.8 0-26.9 12-26.9 26.9 0 1.7.2 3.3.5 4.9h-141.3v1.8.8 20.1h168.3c14.6 0 26.5-11.9 26.5-26.5v-136.5c.1-14.6-11.8-26.5-26.4-26.5z"/><path d="m27 220.6c14.6 5.5 33.9 8.5 54.3 8.5 10.8 0 21.3-.9 30.9-2.5 5.3-4 12.1-7.8 20.8-11s18.8-5.7 29.6-7.3v-14.5c0-.2 0-.4 0-.6 0-.1 0-.3 0-.4v-34c0-.2 0-.4 0-.6 0-.1 0-.3 0-.4v-34c0-.2 0-.4 0-.6 0-7.9-4.7-19.1-27-27.5-14.6-5.6-33.9-8.6-54.3-8.6s-39.7 3-54.3 8.5c-22.3 8.3-27 19.5-27 27.5v34.6.4 34.6.4.4 34.2.4.4 34.6.4 34.6c0 7.9 4.7 19.1 27 27.5 14.6 5.5 33.9 8.5 54.3 8.5 4.4 0 8.7-.1 13-.4v-3.4-.4c0-.1 0-.1 0-.2s0-.2 0-.2v-13.7c-4.2.3-8.6.5-13 .5-18.3 0-35.4-2.6-48-7.3-12.5-4.7-15.4-9.4-15.4-10.6v-11.3c2.6 1.4 5.7 2.7 9.1 4 14.6 5.5 33.9 8.5 54.3 8.5 4.4 0 8.7-.1 13-.4v-4.3c0-.1 0-.1 0-.2s0-.2 0-.2v-13.7c-4.2.3-8.6.5-13 .5-18.3 0-35.4-2.6-48-7.3-12.5-4.7-15.4-9.4-15.4-10.6v-11.2c2.6 1.4 5.7 2.7 9.1 4 14.6 5.5 33.9 8.5 54.3 8.5 4.4 0 8.7-.1 13-.4v-4.3c0-4 .6-9.2 3-14.8-5.2.5-10.5.7-16 .7-18.3 0-35.4-2.6-48-7.3-12.5-4.7-15.4-9.4-15.4-10.6v-11.2c2.7 1.1 5.7 2.5 9.1 3.8zm6.3-108.2c12.7-4.7 29.8-7.3 48-7.3 18.3 0 35.4 2.6 48 7.3 12.1 4.5 15.1 9 15.3 10.5v.3c-.2 1.5-3.2 6-15.3 10.5-12.7 4.7-29.8 7.3-48 7.3-18.3 0-35.4-2.6-48-7.3-12.5-4.7-15.4-9.4-15.4-10.6s2.9-6.1 15.4-10.7zm-15.4 34c2.6 1.4 5.7 2.7 9.1 4 14.6 5.5 33.9 8.5 54.3 8.5s39.7-3 54.3-8.5c3.4-1.3 6.4-2.6 9.1-4v11.2.1c-.2 1.5-3.2 6-15.3 10.5-12.7 4.7-29.8 7.3-48 7.3-18.3 0-35.4-2.6-48-7.3-12.5-4.7-15.4-9.4-15.4-10.6v-11.2zm0 35.1c2.6 1.4 5.7 2.7 9.1 4 14.6 5.5 33.9 8.5 54.3 8.5s39.7-3 54.3-8.5c3.4-1.3 6.4-2.6 9.1-4v11.2.1c-.2 1.5-3.2 6-15.3 10.5-12.7 4.7-29.8 7.3-48 7.3-18.3 0-35.4-2.6-48-7.3-12.5-4.7-15.4-9.4-15.4-10.6v-11.2z"/><path d="m247.9 232.3c-14.6-5.5-33.9-8.5-54.3-8.5s-39.7 3-54.3 8.5c-22.3 8.3-27 19.5-27 27.5v34.6.4 34.6.4.4 34.2.4c0 7.9 4.7 19.1 27 27.5 14.6 5.5 33.9 8.5 54.3 8.5s39.7-3 54.3-8.5c22.3-8.3 27-19.5 27-27.5v-.4-34c0-.2 0-.4 0-.6 0-.1 0-.3 0-.4v-34c0-.2 0-.4 0-.6 0-.1 0-.3 0-.4v-34c0-.2 0-.4 0-.6.1-7.9-4.6-19.1-27-27.5zm-102.3 16.9c12.7-4.7 29.8-7.3 48-7.3 18.3 0 35.4 2.6 48 7.3 12.1 4.5 15.2 9 15.3 10.5v.3c-.2 1.5-3.2 6-15.3 10.5-12.7 4.7-29.8 7.3-48 7.3-18.3 0-35.4-2.6-48-7.3-12.5-4.7-15.4-9.4-15.4-10.6s2.8-6.1 15.4-10.7zm96.1 126c-12.7 4.7-29.8 7.3-48 7.3-18.3 0-35.4-2.6-48-7.3-12.5-4.7-15.4-9.4-15.4-10.6v-11.2c2.6 1.4 5.7 2.7 9.1 4 14.6 5.5 33.9 8.5 54.3 8.5s39.7-3 54.3-8.5c3.4-1.3 6.4-2.6 9.1-4v11.2c-.1 1.2-2.9 5.9-15.4 10.6zm15.3-45.7v.1c-.2 1.5-3.2 6-15.3 10.5-12.7 4.7-29.8 7.3-48 7.3-18.3 0-35.4-2.6-48-7.3-12.5-4.7-15.4-9.4-15.4-10.6v-11.2c2.6 1.4 5.7 2.7 9.1 4 14.6 5.5 33.9 8.5 54.3 8.5s39.7-3 54.3-8.5c3.4-1.3 6.4-2.6 9.1-4zm0-35.1v.1c-.2 1.5-3.2 6-15.3 10.5-12.7 4.7-29.8 7.3-48 7.3-18.3 0-35.4-2.6-48-7.3-12.5-4.7-15.4-9.4-15.4-10.6v-11.2c2.6 1.4 5.7 2.7 9.1 4 14.6 5.5 33.9 8.5 54.3 8.5s39.7-3 54.3-8.5c3.4-1.3 6.4-2.6 9.1-4z"/></svg>