<svg enable-background="new 0 0 47.001 47.001" height="47.001" viewBox="0 0 47.001 47.001" width="47.001" xmlns="http://www.w3.org/2000/svg"><path d="m31.736 10.307c-.111-.112-.249-.193-.398-.24l-8.975-2.818c-3.589-1.127-5.924.839-6.553 1.47-.367.367-.648.754-.792 1.091l-3.998 9.404c-.229.538-.151 1.255.208 1.97.514 1.021 1.44 1.757 2.547 2.022 1.239.297 2.524-.106 3.53-1.111.263-.263.487-.553.619-.799l1.344-2.493c.221-.413.542-.841.88-1.179 1.153-1.154 1.701-.626 1.934-.402 2.011 1.941 12.554 12.529 12.554 12.529.375.375.297 1.086-.172 1.554-.468.467-1.18.547-1.554.174l-2.962-2.961c-.382-.383-.998-.383-1.38 0-.382.379-.382.998 0 1.379l2.962 2.963c.374.373.296 1.084-.172 1.551-.468.469-1.181.547-1.553.174l-2.963-2.961c-.382-.382-1-.382-1.38 0-.382.379-.382.998 0 1.38l2.962 2.962c.374.374.293 1.085-.174 1.553-.467.467-1.178.547-1.553.172l-2.962-2.961c-.38-.381-.999-.381-1.38 0-.38.381-.38 1 0 1.379l2.962 2.963c.375.375.295 1.086-.172 1.554-.47.468-1.181.547-1.554.173l-3.606-3.609c.515-.774.375-1.897-.389-2.664-.856-.855-2.173-.934-2.935-.17.762-.763.687-2.078-.171-2.935-.858-.856-2.172-.935-2.934-.173.762-.762.685-2.076-.174-2.932-.856-.858-2.17-.936-2.934-.174.764-.762.685-2.076-.172-2.935-.802-.802-1.997-.911-2.774-.3l-5.839-5.839c-.381-.382-1-.382-1.381 0-.38.38-.38.999 0 1.381l5.824 5.823-1.727 1.727c-.762.761-.685 2.075.174 2.934.856.856 2.17.935 2.933.172-.763.763-.685 2.076.173 2.934.856.855 2.171.936 2.934.173-.763.763-.686 2.076.172 2.933.858.858 2.172.936 2.934.174-.762.761-.685 2.074.173 2.933.857.856 2.17.935 2.934.172l1.824-1.823 3.581 3.58c1.143 1.143 3.076 1.063 4.314-.173.603-.603.925-1.373.97-2.135.762-.045 1.533-.368 2.135-.972.604-.603.928-1.373.974-2.135.761-.045 1.529-.367 2.135-.971.603-.604.926-1.373.97-2.136.763-.044 1.533-.366 2.137-.972 1.236-1.236 1.312-3.172.172-4.313l-1.51-1.511 6.2-6.199c.381-.38.381-.999 0-1.38z"/><path d="m46.43 12.489-7.901-7.901c-.762-.763-1.999-.763-2.762 0l-2.762 2.76c-.762.762-.762 1.999 0 2.761l7.902 7.903c.763.762 2 .762 2.762 0l2.761-2.761c.761-.763.761-2 0-2.762zm-4.147 4.024c-.884 0-1.602-.717-1.602-1.602s.718-1.603 1.602-1.603c.885 0 1.603.717 1.603 1.603-.001.884-.718 1.602-1.603 1.602z"/></svg>