<svg enable-background="new 0 0 488.7 488.7" viewBox="0 0 488.7 488.7" xmlns="http://www.w3.org/2000/svg"><path d="m328.6 189.45v-23.7c0-5-2.2-9.8-6.1-13-21.4-17.6-44.6-29.3-49.3-31.6-.5-.3-.9-.8-.9-1.4v-33.3c4.2-2.8 7-7.6 7-13v-34.6c0-17.2-14-31.2-31.2-31.2h-3.7-3.7c-17.2 0-31.2 14-31.2 31.2v34.6c0 5.4 2.8 10.2 7 13v33.4c0 .6-.3 1.1-.9 1.4-4.7 2.3-27.8 14-49.3 31.6-3.9 3.2-6.1 7.9-6.1 13v23.7h84.2 84.2z"/><path d="m482.6 444.35c-21.4-17.6-44.6-29.3-49.3-31.6-.5-.3-.9-.8-.9-1.4v-33.4c4.2-2.8 7-7.6 7-13v-34.6c0-17.2-14-31.2-31.2-31.2h-3.7-3.7c-17.2 0-31.2 14-31.2 31.2v34.6c0 5.4 2.8 10.2 7 13v33.4c0 .6-.3 1.1-.9 1.4-4.7 2.3-27.8 14-49.3 31.6-3.9 3.2-6.1 7.9-6.1 13v23.7h84.2 84.2v-23.7c0-5-2.2-9.8-6.1-13z"/><path d="m162.3 444.35c-21.4-17.6-44.6-29.3-49.3-31.6-.5-.3-.9-.8-.9-1.4v-33.4c4.2-2.8 7-7.6 7-13v-34.6c0-17.2-14-31.2-31.2-31.2h-3.7-3.7c-17.2 0-31.2 14-31.2 31.2v34.6c0 5.4 2.8 10.2 7 13v33.4c0 .6-.3 1.1-.9 1.4-4.7 2.3-27.8 14-49.3 31.6-3.9 3.2-6.1 7.9-6.1 13v23.7h84.2 84.2v-23.7c0-5-2.2-9.8-6.1-13z"/><path d="m244.4 248.75c-6.2 0-11.2 5-11.2 11.2s5 11.3 11.2 11.3 11.2-5 11.2-11.3c0-6.2-5-11.2-11.2-11.2z"/><circle cx="244.4" cy="292.85" r="11.2"/><circle cx="244.4" cy="325.65" r="11.2"/><path d="m244.4 215.85c-3 0-5.9 1.2-8 3.3s-3.3 5-3.3 8 1.2 5.9 3.3 8 5 3.3 8 3.3 5.9-1.2 8-3.3 3.3-5 3.3-8-1.2-5.9-3.3-8-5-3.3-8-3.3z"/><path d="m278.1 334.05c-5.2-3.4-12.2-1.9-15.5 3.4-3.4 5.2-1.9 12.2 3.3 15.5 5.2 3.4 12.2 1.9 15.6-3.3 3.3-5.3 1.8-12.2-3.4-15.6z"/><circle cx="299.6" cy="361.35" r="11.2"/><circle cx="327.2" cy="379.15" r="11.2"/><path d="m210.7 334.05c-5.2 3.4-6.7 10.3-3.4 15.6 3.4 5.2 10.3 6.7 15.6 3.3 5.2-3.4 6.7-10.3 3.3-15.5-3.3-5.3-10.3-6.8-15.5-3.4z"/><circle cx="189.2" cy="361.35" r="11.2"/><circle cx="161.6" cy="379.15" r="11.2"/></svg>