<svg enable-background="new 0 0 792 612" viewBox="0 0 792 612" xmlns="http://www.w3.org/2000/svg"><path d="m353.4 400.8s-51 78.1 0 78.1 348.3 0 348.3 0 66.1-9 21-78.1c-45-69.1-231.2-360.3-231.2-360.3l-15-18s-60-12-51 39l155 248.6s58.9 85.3-25.9 90.7c-66 4.2-201.2 0-201.2 0z" fill="#017488"/><path d="m403 289.7-46.6 78.1h96.1z" fill="#007b3d"/><path d="m368.4 277.7s18-21 0-42-27-52.3-63.1 14.4-162.1 276.8-162.1 276.8-36 54 30 54 462.4 0 462.4 0 36 3 42-18 12-51-15-51-331.9 0-331.9 0-82.4-9-43.4-87.1 81.1-147.1 81.1-147.1z" fill="#007b3d"/><path d="m470.5 328.8s24 45 51 24 29.1-36 13-63.1c-16-27-166.2-246.2-166.2-246.2s-48-45-84.1 18-198 333.9-198 333.9-42 50.4 0 71.5 45-12 66.1-42c21-30 153.9-243.2 153.9-243.2s35.3-33 68.3 3 96 144.1 96 144.1z" fill="#064a91"/></svg>