<svg enable-background="new 0 0 792 188" viewBox="0 0 792 188" xmlns="http://www.w3.org/2000/svg"><path d="m88.2 112.8s-12.8 19.6 0 19.6 87.3 0 87.3 0 16.6-2.3 5.3-19.6-57.9-90.3-57.9-90.3l-3.9-4.5s-15-3-12.8 9.8l38.9 62.3s14.8 21.4-6.5 22.7c-16.6 1.1-50.4 0-50.4 0z" fill="#017488"/><path d="m100.6 85-11.7 19.5h24.1z" fill="#007b3d"/><path d="m91.9 82s4.5-5.3 0-10.5c-4.5-5.3-6.8-13.1-15.8 3.6s-40.6 69.4-40.6 69.4-9 13.5 7.5 13.5 115.9 0 115.9 0 9 .8 10.5-4.5 3-12.8-3.8-12.8-83.2 0-83.2 0-20.7-2.3-10.9-21.8 20.4-36.9 20.4-36.9z" fill="#007b3d"/><path d="m117.5 94.8s6 11.3 12.8 6 7.3-9 3.3-15.8-41.6-61.7-41.6-61.7-12-11.3-21.1 4.5-49.7 83.7-49.7 83.7-10.5 12.6 0 17.9 11.3-3 16.6-10.5 38.6-61 38.6-61 8.8-8.3 17.1.8 24 36.1 24 36.1z" fill="#064a91"/><path d="m223.3 103.5 549 1-549 1z" fill="#017488"/><path d="m217.8 58.9h665.6v146.6h-665.6z" fill="none"/><text fill="#007b3d" font-family="'TrajanPro-Regular'" font-size="52.8056" letter-spacing="-2" transform="translate(217.8066 92.6615)">UNAGRA, S.A. DE C.V.</text><path d="m217.8 121.8h892.2v180.4h-892.2z" fill="none"/><text fill="#007b3d" font-family="'TrajanPro-Regular'" font-size="28.603" letter-spacing="1" transform="translate(217.8066 140.1254)">SOCIEDAD FINANCIERA POPULAR</text></svg>