<?xml version="1.0" encoding="utf-8"?>
<!-- Generator: Adobe Illustrator 18.0.0, SVG Export Plug-In . SVG Version: 6.00 Build 0)  -->
<!DOCTYPE svg PUBLIC "-//W3C//DTD SVG 1.1//EN" "http://www.w3.org/Graphics/SVG/1.1/DTD/svg11.dtd">
<svg version="1.1" id="Capa_2" xmlns="http://www.w3.org/2000/svg" xmlns:xlink="http://www.w3.org/1999/xlink" x="0px" y="0px"
	 viewBox="0 0 792 188" enable-background="new 0 0 792 188" xml:space="preserve">
<path fill="#017488" d="M88.2,112.8c0,0-12.8,19.6,0,19.6s87.3,0,87.3,0s16.6-2.3,5.3-19.6c-11.3-17.3-57.9-90.3-57.9-90.3L119,18
	c0,0-15-3-12.8,9.8l38.9,62.3c0,0,14.8,21.4-6.5,22.7C122,113.9,88.2,112.8,88.2,112.8z"/>
<polygon fill="#007B3D" points="100.6,85 88.9,104.5 113,104.5 "/>
<path fill="#007B3D" d="M91.9,82c0,0,4.5-5.3,0-10.5c-4.5-5.3-6.8-13.1-15.8,3.6s-40.6,69.4-40.6,69.4S26.5,158,43,158
	s115.9,0,115.9,0s9,0.8,10.5-4.5c1.5-5.3,3-12.8-3.8-12.8c-6.8,0-83.2,0-83.2,0s-20.7-2.3-10.9-21.8S91.9,82,91.9,82z"/>
<path fill="#064A91" d="M117.5,94.8c0,0,6,11.3,12.8,6c6.8-5.3,7.3-9,3.3-15.8c-4-6.8-41.6-61.7-41.6-61.7s-12-11.3-21.1,4.5
	s-49.7,83.7-49.7,83.7s-10.5,12.6,0,17.9s11.3-3,16.6-10.5c5.3-7.5,38.6-61,38.6-61s8.8-8.3,17.1,0.8S117.5,94.8,117.5,94.8z"/>
<g>
	<polygon fill="#017488" points="223.3,103.5 772.3,104.5 223.3,105.5 	"/>
</g>
<rect x="217.8" y="58.9" fill="none" width="665.6" height="146.6"/>
<text transform="matrix(1 0 0 1 217.8066 92.6615)" fill="#007B3D" font-family="'TrajanPro-Regular'" font-size="52.8056" letter-spacing="-2">UNAGRA, S.A. DE C.V.</text>
<rect x="217.8" y="121.8" fill="none" width="892.2" height="180.4"/>
<text transform="matrix(1 0 0 1 217.8066 140.1254)" fill="#007B3D" font-family="'TrajanPro-Regular'" font-size="28.603" letter-spacing="1">SOCIEDAD FINANCIERA POPULAR</text>
</svg>
